<?xml version="1.0" encoding="utf-8"?>
<!-- Generator: Adobe Illustrator 27.1.1, SVG Export Plug-In . SVG Version: 6.00 Build 0)  -->
<svg version="1.1" id="Layer_1" xmlns="http://www.w3.org/2000/svg" xmlns:xlink="http://www.w3.org/1999/xlink" x="0px" y="0px"
	 viewBox="0 0 162.3 154" style="enable-background:new 0 0 162.3 154;" xml:space="preserve">
<g>
	<path fill="#4d4d4d" d="M85.4,104.6c-0.3-1.2-1.5-2.1-2.7-1.8c-1.5,0.3-3.1,0.5-4.6,0.5c-12.7,0-22.9-10.3-22.9-23S65.4,57.3,78,57.3
		c1.6,0,3.1,0.2,4.6,0.5c1.2,0.3,2.5-0.5,2.7-1.8l6.8-33c0.1-0.6,0-1.2-0.3-1.7c-0.3-0.5-0.9-0.9-1.5-1c-8.1-1.7-16.6-1.7-24.7,0
		c-1.1,0.2-1.8,1.2-1.8,2.2v9.7c-3.4,1-6.7,2.3-9.8,4l-6.9-6.9c-0.8-0.8-2-0.9-2.9-0.3c-7,4.6-12.9,10.5-17.5,17.5
		c-0.6,0.9-0.5,2.1,0.3,2.9l6.9,6.9c-1.7,3.1-3.1,6.4-4.1,9.8h-9.7c-1.1,0-2,0.8-2.2,1.8c-0.8,4-1.2,8.2-1.2,12.3s0.4,8.3,1.2,12.3
		c0.2,1.1,1.2,1.8,2.2,1.8H30c1,3.4,2.3,6.7,4,9.8l-6.9,6.9c-0.8,0.8-0.9,2-0.3,2.9c4.6,7,10.5,12.8,17.5,17.5
		c0.9,0.6,2.1,0.5,2.9-0.3l6.9-6.9c3.1,1.7,6.4,3.1,9.8,4.1v9.7c0,1.1,0.8,2,1.8,2.2c4,0.8,8.2,1.2,12.4,1.2s8.3-0.4,12.4-1.2
		c0.6-0.1,1.1-0.5,1.5-1c0.3-0.5,0.5-1.1,0.3-1.7L85.4,104.6z M78,52.7c-15.2,0-27.6,12.4-27.6,27.5s12.4,27.6,27.6,27.6
		c1.1,0,2.2-0.1,3.3-0.2l1,4.8c-1.4,0.2-2.9,0.3-4.3,0.3c-17.9,0-32.5-14.6-32.5-32.5S60.1,47.8,78,47.8c1.4,0,2.9,0.1,4.3,0.3
		l-1,4.8C80.2,52.8,79.1,52.8,78,52.7L78,52.7z M68.5,136.2v-9.6c0-1.1-0.7-2-1.7-2.2c-4.1-1.1-8.1-2.7-11.8-4.9
		c-0.9-0.5-2.1-0.4-2.8,0.3l-6.8,6.8c-5.3-3.7-9.8-8.3-13.6-13.6l6.8-6.8c0.7-0.7,0.9-1.9,0.3-2.8c-2.2-3.7-3.8-7.7-4.9-11.8
		c-0.3-1-1.2-1.7-2.2-1.7h-9.6c-0.5-3.2-0.8-6.4-0.8-9.6c0-3.2,0.3-6.4,0.8-9.6h9.6c1.1,0,2-0.7,2.2-1.7c1.1-4.1,2.7-8.1,4.9-11.8
		c0.5-0.9,0.4-2-0.3-2.8l-6.8-6.8c3.7-5.3,8.3-9.8,13.6-13.6l6.8,6.8c0.7,0.7,1.9,0.9,2.8,0.4c3.7-2.2,7.7-3.8,11.9-4.9
		c1-0.3,1.7-1.2,1.7-2.2v-9.6c6.2-1,12.6-1.1,18.8-0.1l-4.4,21.5c-1.6-0.2-3.1-0.3-4.7-0.3c-19.2,0-34.8,15.6-34.8,34.8
		s15.6,34.8,34.8,34.8c1.6,0,3.2-0.1,4.7-0.3l4.4,21.5C81,137.2,74.6,137.2,68.5,136.2L68.5,136.2z"/>
	<path fill="#4d4d4d" d="M110.3,33h22.6c1.6,3,4.7,5,8.3,5c5.2,0,9.4-4.2,9.4-9.4s-4.2-9.4-9.4-9.4c-3.5,0-6.5,1.9-8.1,4.7h-26.2
		c-0.3,0-0.6,0.1-0.8,0.3L94.4,35.4c-0.2,0.2-0.4,0.5-0.4,0.8v10c-2.9,1.6-4.9,4.7-4.9,8.2c0,1.3,0.3,2.6,0.8,3.7l-5.5,7
		c-1.9-0.8-3.9-1.2-6.1-1.2c-8.9,0-16.2,7.3-16.2,16.2s7.3,16.2,16.2,16.2c2.2,0,4.2-0.4,6.1-1.2l5.5,7c-0.5,1.2-0.8,2.4-0.8,3.7
		c0,3.6,2,6.6,4.9,8.2v10.1c0,0.3,0.1,0.6,0.4,0.8l11.7,11.1c0.2,0.2,0.5,0.3,0.8,0.3h10.3c1.6,2.8,4.7,4.7,8.1,4.7
		c5.2,0,9.4-4.2,9.4-9.4c0-5.2-4.2-9.4-9.4-9.4c-3.6,0-6.8,2.1-8.3,5.1h-6.7l-7.2-6.7v-6.6c1.5-0.8,2.8-2.1,3.7-3.6h14.4
		c1.6,2.9,4.7,4.8,8.2,4.8c5.2,0,9.4-4.2,9.4-9.4s-4.2-9.4-9.4-9.4c-3.6,0-6.7,2-8.3,5h-14.1c-1.6-3-4.7-5-8.3-5
		c-0.5,0-1.1,0.1-1.6,0.1l-5.5-7c1.1-1.5,1.9-3.2,2.4-5H125c1.6,2.9,4.7,4.9,8.2,4.9c5.2,0,9.4-4.2,9.4-9.4s-4.2-9.4-9.4-9.4
		c-3.6,0-6.6,2-8.2,4.9H93.9c-0.5-1.8-1.4-3.5-2.4-5l5.5-7c0.5,0.1,1,0.1,1.6,0.1c3.6,0,6.7-2,8.3-5h22.1c1.6,3,4.7,5,8.3,5
		c5.2,0,9.4-4.2,9.4-9.4s-4.2-9.4-9.4-9.4c-3.5,0-6.6,1.9-8.2,4.8h-22.3c-0.9-1.5-2.1-2.8-3.7-3.7v-6.6L110.3,33L110.3,33z
		 M129.3,101.2c2.7,0,4.9,2.2,4.9,4.9s-2.2,4.9-4.9,4.9s-4.9-2.2-4.9-4.9S126.6,101.2,129.3,101.2z M137.2,49.6
		c2.7,0,4.9,2.2,4.9,4.9s-2.2,4.9-4.9,4.9s-4.9-2.2-4.9-4.9S134.5,49.6,137.2,49.6z M141.2,23.8c2.7,0,4.9,2.2,4.9,4.9
		s-2.2,4.9-4.9,4.9s-4.9-2.2-4.9-4.9S138.5,23.8,141.2,23.8z M66.6,80.3c0-6.5,5.3-11.7,11.7-11.7s11.7,5.3,11.7,11.7
		c0,6.5-5.3,11.7-11.7,11.7S66.6,86.8,66.6,80.3z M125.3,127c2.7,0,4.9,2.2,4.9,4.9c0,2.7-2.2,4.9-4.9,4.9s-4.9-2.2-4.9-4.9
		C120.4,129.2,122.6,127,125.3,127z M101.2,122.2l7.9,7.3c0.2,0.2,0.5,0.3,0.8,0.3h6.3c-0.1,0.7-0.2,1.4-0.2,2.1
		c0,0.8,0.1,1.6,0.3,2.4h-8.9l-11-10.4v-8.7c0.7,0.2,1.5,0.3,2.3,0.3s1.5-0.1,2.3-0.3v6.2C100.8,121.7,101,122,101.2,122.2
		L101.2,122.2z M120.1,103.9c-0.2,0.7-0.3,1.4-0.3,2.2c0,0.8,0.1,1.6,0.3,2.3h-12.5c0.2-0.8,0.3-1.5,0.3-2.4c0-0.7-0.1-1.5-0.3-2.2
		L120.1,103.9L120.1,103.9z M103.5,106.1c0,2.7-2.2,4.9-4.9,4.9s-4.9-2.2-4.9-4.9s2.2-4.9,4.9-4.9S103.5,103.4,103.5,106.1z
		 M94.7,97.5c-1.4,0.6-2.6,1.6-3.5,2.7l-4.7-6c1.3-0.8,2.5-1.7,3.5-2.7L94.7,97.5z M133.2,75.4c2.7,0,4.9,2.2,4.9,4.9
		s-2.2,4.9-4.9,4.9s-4.9-2.2-4.9-4.9S130.5,75.4,133.2,75.4z M124.1,78c-0.2,0.7-0.3,1.5-0.3,2.3s0.1,1.5,0.3,2.3H94.4
		c0.1-0.7,0.2-1.5,0.2-2.3c0-0.8-0.1-1.5-0.2-2.3H124.1z M90,69c-1-1.1-2.2-2-3.5-2.7l4.7-6c0.9,1.2,2.1,2.1,3.5,2.7L90,69L90,69z
		 M128.1,52.1c-0.2,0.8-0.3,1.5-0.3,2.3c0,0.8,0.1,1.5,0.3,2.2h-20.4c0.2-0.7,0.3-1.4,0.3-2.2c0-0.8-0.1-1.6-0.3-2.3H128.1z
		 M98.6,59.4c-2.7,0-4.9-2.2-4.9-4.9s2.2-4.9,4.9-4.9s4.9,2.2,4.9,4.9S101.3,59.4,98.6,59.4z M98.6,45.1c-0.8,0-1.5,0.1-2.3,0.3
		v-8.7l11-10.4h24.8c-0.2,0.8-0.3,1.6-0.3,2.4c0,0.7,0.1,1.4,0.2,2.1h-22.2c-0.3,0-0.6,0.1-0.8,0.3l-7.9,7.3
		c-0.2,0.2-0.4,0.5-0.4,0.8v6.2C100.1,45.2,99.3,45.1,98.6,45.1L98.6,45.1z"/>
</g>
</svg>
